<svg width="25" height="24" viewBox="0 0 25 24" fill="none" xmlns="http://www.w3.org/2000/svg">
<path d="M18.3333 3H6.33325C4.12325 3 2.33325 4.78 2.33325 6.97V17.03C2.33325 19.22 4.12325 21 6.33325 21H18.3333C20.5433 21 22.3333 19.22 22.3333 17.03V6.97C22.3333 4.78 20.5433 3 18.3333 3ZM8.83325 7.17C10.1033 7.17 11.1433 8.21 11.1433 9.48C11.1433 10.75 10.1033 11.79 8.83325 11.79C7.56325 11.79 6.52325 10.75 6.52325 9.48C6.52325 8.21 7.56325 7.17 8.83325 7.17ZM12.7033 16.66C12.6133 16.76 12.4733 16.82 12.3333 16.82H5.33325C5.19325 16.82 5.05325 16.76 4.96325 16.66C4.87325 16.56 4.82325 16.42 4.83325 16.28C5.00325 14.6 6.34325 13.27 8.02325 13.11C8.55325 13.06 9.10325 13.06 9.63325 13.11C11.3133 13.27 12.6633 14.6 12.8233 16.28C12.8433 16.42 12.7933 16.56 12.7033 16.66ZM19.3333 16.75H17.3333C16.9233 16.75 16.5833 16.41 16.5833 16C16.5833 15.59 16.9233 15.25 17.3333 15.25H19.3333C19.7433 15.25 20.0833 15.59 20.0833 16C20.0833 16.41 19.7433 16.75 19.3333 16.75ZM19.3333 12.75H15.3333C14.9233 12.75 14.5833 12.41 14.5833 12C14.5833 11.59 14.9233 11.25 15.3333 11.25H19.3333C19.7433 11.25 20.0833 11.59 20.0833 12C20.0833 12.41 19.7433 12.75 19.3333 12.75ZM19.3333 8.75H14.3333C13.9233 8.75 13.5833 8.41 13.5833 8C13.5833 7.59 13.9233 7.25 14.3333 7.25H19.3333C19.7433 7.25 20.0833 7.59 20.0833 8C20.0833 8.41 19.7433 8.75 19.3333 8.75Z" fill="white"/>
</svg>
