<svg width="25" height="24" viewBox="0 0 25 24" fill="none" xmlns="http://www.w3.org/2000/svg">
<path d="M18.6667 13C15.9067 13 13.6667 15.24 13.6667 18C13.6667 20.76 15.9067 23 18.6667 23C21.4267 23 23.6667 20.76 23.6667 18C23.6667 15.24 21.4267 13 18.6667 13ZM17.8267 19.27C18.0767 19.52 18.0767 19.93 17.8267 20.19C17.6967 20.32 17.5367 20.38 17.3667 20.38C17.1967 20.38 17.0367 20.32 16.9067 20.19L15.1767 18.46C14.9267 18.21 14.9267 17.8 15.1767 17.54L16.9067 15.81C17.1567 15.56 17.5667 15.56 17.8267 15.81C18.0767 16.06 18.0767 16.47 17.8267 16.73L16.5567 18L17.8267 19.27ZM22.1467 18.46L20.4167 20.19C20.2867 20.32 20.1267 20.38 19.9567 20.38C19.7867 20.38 19.6267 20.32 19.4967 20.19C19.2467 19.94 19.2467 19.53 19.4967 19.27L20.7767 18L19.5067 16.73C19.2567 16.48 19.2567 16.07 19.5067 15.81C19.7567 15.56 20.1667 15.56 20.4267 15.81L22.1567 17.54C22.3967 17.8 22.3967 18.2 22.1467 18.46Z" fill="white"/>
<path d="M21.6667 7V11.47C21.6667 11.82 21.3267 12.06 21.0067 11.94C19.8967 11.51 18.6567 11.37 17.3567 11.63C14.7567 12.15 12.6867 14.28 12.2567 16.9C11.9967 18.5 12.3167 20.01 13.0467 21.24C13.2467 21.58 13.0067 22 12.6167 22H8.66675C5.16675 22 3.66675 20 3.66675 17V7C3.66675 4.34 4.84675 2.47 7.55675 2.08C7.84675 2.04 8.10675 2.27 8.11675 2.57L8.14675 3.58C8.17675 5.18 9.52675 6.5 11.1467 6.5H14.1667C15.8167 6.5 17.1667 5.15 17.1667 3.5V2.57C17.1667 2.27 17.4267 2.03 17.7167 2.07C20.4667 2.44 21.6667 4.32 21.6667 7Z" fill="white"/>
<path d="M15.6669 3V3.5C15.6669 4.32 14.9869 5 14.1669 5H11.1369C10.3269 5 9.65686 4.35 9.63686 3.54L9.62686 3.03C9.60686 2.46 10.0569 2 10.6269 2H14.6669C15.2169 2 15.6669 2.45 15.6669 3Z" fill="white"/>
</svg>
